<?xml version="1.0" encoding="UTF-8" standalone="no"?><!DOCTYPE svg PUBLIC "-//W3C//DTD SVG 1.1//EN" "http://www.w3.org/Graphics/SVG/1.1/DTD/svg11.dtd"><svg width="100%" height="100%" viewBox="0 0 300 300" version="1.1" xmlns="http://www.w3.org/2000/svg" xmlns:xlink="http://www.w3.org/1999/xlink" xml:space="preserve" xmlns:serif="http://www.serif.com/" style="fill-rule:evenodd;clip-rule:evenodd;stroke-linejoin:round;stroke-miterlimit:2;"><g transform="matrix(3,0,0,3,0,0)"><rect x="0" y="0" width="100" height="100" style="fill:rgb(233,170,22);"/></g><g id="Flock" transform="matrix(1.437489,0.005346,-0.005346,1.437489,-432.402985,-515.292515)"><g id="Bird-A" serif:id="Bird A" transform="matrix(-0.985861,0.542928,-0.565238,-1.026373,1675.914624,117.784076)"><path d="M1138.232,188C1140.639,188 1147.102,205.215 1165.264,212.753C1191.88,223.799 1214.582,221.964 1214.243,224.365C1213.906,226.758 1167.305,231.219 1137.481,215.232C1114.081,231.055 1061.177,225.803 1061.243,224.365C1061.355,221.946 1092.035,222.61 1112.559,212.026C1127.025,204.566 1135.825,188 1138.232,188Z" style="fill:rgb(17,51,75);"/></g><g id="Bird-B" serif:id="Bird B" transform="matrix(-0.716064,-0.153438,0.159743,-0.745489,1144.421469,792.637724)"><path d="M1138.232,188C1140.639,188 1147.102,205.215 1165.264,212.753C1191.88,223.799 1214.582,221.964 1214.243,224.365C1213.906,226.758 1167.305,231.219 1137.481,215.232C1114.081,231.055 1061.177,225.803 1061.243,224.365C1061.355,221.946 1092.035,222.61 1112.559,212.026C1127.025,204.566 1135.825,188 1138.232,188Z" style="fill:rgb(17,51,75);"/></g><g id="Bird-C" serif:id="Bird C" transform="matrix(-0.380176,0.046862,-0.048787,-0.395799,899.691945,448.67254)"><path d="M1138.232,188C1140.639,188 1147.102,205.215 1165.264,212.753C1191.88,223.799 1214.582,221.964 1214.243,224.365C1213.906,226.758 1167.305,231.219 1137.481,215.232C1114.081,231.055 1061.177,225.803 1061.243,224.365C1061.355,221.946 1092.035,222.61 1112.559,212.026C1127.025,204.566 1135.825,188 1138.232,188Z" style="fill:rgb(17,51,75);"/></g><g id="Bird-D" serif:id="Bird D" transform="matrix(-0.269186,-0.063261,0.065861,-0.280248,661.147557,517.156948)"><path d="M1138.232,188C1140.639,188 1147.102,205.215 1165.264,212.753C1191.88,223.799 1214.582,221.964 1214.243,224.365C1213.906,226.758 1167.305,231.219 1137.481,215.232C1114.081,231.055 1061.177,225.803 1061.243,224.365C1061.355,221.946 1092.035,222.61 1112.559,212.026C1127.025,204.566 1135.825,188 1138.232,188Z" style="fill:rgb(17,51,75);"/></g></g></svg>