<?xml version="1.0" encoding="UTF-8" standalone="no"?><!DOCTYPE svg PUBLIC "-//W3C//DTD SVG 1.1//EN" "http://www.w3.org/Graphics/SVG/1.1/DTD/svg11.dtd"><svg width="3840px" height="880px" version="1.1" xmlns="http://www.w3.org/2000/svg" xmlns:xlink="http://www.w3.org/1999/xlink" xml:space="preserve" xmlns:serif="http://www.serif.com/" style="fill-rule:evenodd;clip-rule:evenodd;stroke-linejoin:round;stroke-miterlimit:2;"><g transform="matrix(1.195721,0,0,1.195721,-398.502203,-884.260541)"><path d="M350,1451.5L350,763.5L584,763.5L584,1020.5L594,1020.5L743,763.5L992,763.5L785,1086.5L995,1451.5L740,1451.5L594,1183.5L584,1183.5L584,1451.5L350,1451.5Z" style="fill-rule:nonzero;"/><path d="M1046,1451.5L1046,763.5L1285,763.5L1419,1029.5L1426,1029.5L1426,763.5L1649,763.5L1649,1451.5L1434,1451.5L1275,1130.5L1269,1130.5L1269,1451.5L1046,1451.5Z" style="fill-rule:nonzero;"/><path d="M2017,1459.5C1956.333,1459.5 1906.833,1455.833 1868.5,1448.5C1830.167,1441.167 1800.333,1429.5 1779,1413.5C1757.667,1397.5 1742.167,1375.833 1732.5,1348.5C1722.833,1321.167 1717,1287.667 1715,1248C1713,1208.333 1712,1161.5 1712,1107.5C1712,1053.5 1713,1006.667 1715,967C1717,927.333 1722.833,893.833 1732.5,866.5C1742.167,839.167 1757.667,817.5 1779,801.5C1800.333,785.5 1830.167,773.833 1868.5,766.5C1906.833,759.167 1956.333,755.5 2017,755.5C2077.667,755.5 2127.167,759.167 2165.5,766.5C2203.833,773.833 2233.833,785.5 2255.5,801.5C2277.167,817.5 2292.667,839.167 2302,866.5C2311.333,893.833 2317.167,927.333 2319.5,967C2321.833,1006.667 2323,1053.5 2323,1107.5C2323,1161.5 2321.833,1208.333 2319.5,1248C2317.167,1287.667 2311.333,1321.167 2302,1348.5C2292.667,1375.833 2277.167,1397.5 2255.5,1413.5C2233.833,1429.5 2203.833,1441.167 2165.5,1448.5C2127.167,1455.833 2077.667,1459.5 2017,1459.5ZM2017,1292.5C2031,1292.5 2042.5,1291.833 2051.5,1290.5C2060.5,1289.167 2067.5,1285.5 2072.5,1279.5C2077.5,1273.5 2081,1264 2083,1251C2085,1238 2086.333,1219.833 2087,1196.5C2087.667,1173.167 2088,1143.5 2088,1107.5C2088,1071.5 2087.667,1041.833 2087,1018.5C2086.333,995.167 2085,977 2083,964C2081,951 2077.5,941.5 2072.5,935.5C2067.5,929.5 2060.5,925.833 2051.5,924.5C2042.5,923.167 2031,922.5 2017,922.5C2003,922.5 1991.5,923.167 1982.5,924.5C1973.5,925.833 1966.667,929.5 1962,935.5C1957.333,941.5 1953.833,951 1951.5,964C1949.167,977 1947.833,995.167 1947.5,1018.5C1947.167,1041.833 1947,1071.5 1947,1107.5C1947,1143.5 1947.167,1173.167 1947.5,1196.5C1947.833,1219.833 1949.167,1238 1951.5,1251C1953.833,1264 1957.333,1273.5 1962,1279.5C1966.667,1285.5 1973.5,1289.167 1982.5,1290.5C1991.5,1291.833 2003,1292.5 2017,1292.5Z" style="fill-rule:nonzero;"/><path d="M2675,1459.5C2646.333,1459.5 2615.667,1458.667 2583,1457C2550.333,1455.333 2518.667,1453.167 2488,1450.5C2457.333,1447.833 2430.667,1444.833 2408,1441.5L2408,1282.5C2432.667,1284.5 2456.833,1286.333 2480.5,1288C2504.167,1289.667 2526.5,1290.833 2547.5,1291.5C2568.5,1292.167 2586.333,1292.5 2601,1292.5C2627.667,1292.5 2647.667,1292 2661,1291C2674.333,1290 2683.333,1287.833 2688,1284.5C2691.333,1281.833 2693.667,1278.833 2695,1275.5C2696.333,1272.167 2697.167,1268.167 2697.5,1263.5C2697.833,1258.833 2698,1253.5 2698,1247.5C2698,1237.5 2697,1229.833 2695,1224.5C2693,1219.167 2689,1215 2683,1212C2677,1209 2668,1206.5 2656,1204.5C2644,1202.5 2628,1200.167 2608,1197.5L2491,1182.5C2470.333,1179.833 2453.333,1173 2440,1162C2426.667,1151 2416.167,1136.333 2408.5,1118C2400.833,1099.667 2395.5,1077.667 2392.5,1052C2389.5,1026.333 2388,997.833 2388,966.5C2388,921.167 2395,884.667 2409,857C2423,829.333 2442.5,808.167 2467.5,793.5C2492.5,778.833 2521.333,768.833 2554,763.5C2586.667,758.167 2622,755.5 2660,755.5C2688,755.5 2716.833,756.5 2746.5,758.5C2776.167,760.5 2804.167,763 2830.5,766C2856.833,769 2878.667,772.5 2896,776.5L2896,933.5C2879.333,931.5 2859.5,929.667 2836.5,928C2813.5,926.333 2790,925 2766,924C2742,923 2719.333,922.5 2698,922.5C2682,922.5 2669,922.833 2659,923.5C2649,924.167 2641.333,926.167 2636,929.5C2630.667,932.833 2626.833,937 2624.5,942C2622.167,947 2621,953.167 2621,960.5C2621,971.833 2622,980.5 2624,986.5C2626,992.5 2631,996.667 2639,999C2647,1001.333 2659.667,1003.833 2677,1006.5L2782,1019.5C2799.333,1021.5 2815.667,1024.833 2831,1029.5C2846.333,1034.167 2860.667,1041.333 2874,1051C2887.333,1060.667 2899,1075.167 2909,1094.5C2913.667,1102.5 2917.5,1112.833 2920.5,1125.5C2923.5,1138.167 2926,1153 2928,1170C2930,1187 2931,1206.5 2931,1228.5C2931,1270.5 2926.833,1305.5 2918.5,1333.5C2910.167,1361.5 2898.167,1383.833 2882.5,1400.5C2866.833,1417.167 2848.333,1429.833 2827,1438.5C2805.667,1447.167 2782.167,1452.833 2756.5,1455.5C2730.833,1458.167 2703.667,1459.5 2675,1459.5Z" style="fill-rule:nonzero;"/><path d="M3125,1451.5L3125,939.5L2957,939.5L2957,763.5L3528,763.5L3528,939.5L3359,939.5L3359,1451.5L3125,1451.5Z" style="fill-rule:nonzero;"/></g></svg>